<svg width="48" height="48" viewBox="0 0 48 48" fill="none" xmlns="http://www.w3.org/2000/svg">
<path d="M42 30V38H2V20C2 15.5817 5.58172 12 10 12H29.5M34.5 18.5V27.5L39.5 23.5L45 27.5V18.5" stroke="#7EB693" stroke-width="2" stroke-linecap="round" stroke-linejoin="round"/>
<path d="M38.7925 2.70816C39.1831 2.31717 39.8168 2.31717 40.2074 2.70816L41.1708 3.67248C41.3799 3.88184 41.6711 3.98781 41.9659 3.96187L43.3237 3.8424C43.8743 3.79396 44.3597 4.2013 44.4076 4.75189L44.5257 6.10985C44.5514 6.40467 44.7063 6.673 44.9488 6.84262L46.0658 7.6239C46.5186 7.94068 46.6287 8.56475 46.3115 9.01732L45.5291 10.1335C45.3592 10.3758 45.3054 10.681 45.3821 10.9668L45.7356 12.2832C45.8789 12.817 45.562 13.3658 45.0281 13.5086L43.7113 13.8607C43.4254 13.9372 43.1881 14.1363 43.0631 14.4046L42.4877 15.6403C42.2544 16.1413 41.6589 16.358 41.1581 16.1242L39.923 15.5475C39.6549 15.4223 39.345 15.4223 39.0769 15.5475L37.8418 16.1242C37.341 16.358 36.7455 16.1413 36.5122 15.6403L35.9368 14.4046C35.8118 14.1363 35.5745 13.9372 35.2886 13.8607L33.9718 13.5086C33.4379 13.3658 33.121 12.817 33.2643 12.2832L33.6178 10.9668C33.6945 10.681 33.6407 10.3758 33.4708 10.1335L32.6884 9.01732C32.3712 8.56475 32.4813 7.94068 32.9341 7.6239L34.0511 6.84262C34.2936 6.673 34.4485 6.40467 34.4742 6.10985L34.5923 4.75189C34.6402 4.2013 35.1256 3.79396 35.6762 3.8424L37.034 3.96187C37.3288 3.98781 37.62 3.88184 37.8291 3.67248L38.7925 2.70816Z" stroke="#7EB693" stroke-width="2" stroke-linecap="round"/>
<path d="M2 20.5C2 15.8056 5.80558 12 10.5 12V12C15.1944 12 19 15.8056 19 20.5V38H2V20.5Z" stroke="#7EB693" stroke-width="2" stroke-linecap="round"/>
<path d="M14.5 23H6.5" stroke="#7EB693" stroke-width="2" stroke-linecap="round"/>
<path d="M23 39V46" stroke="#7EB693" stroke-width="2" stroke-linecap="round"/>
<path d="M28 39V46" stroke="#7EB693" stroke-width="2" stroke-linecap="round"/>
</svg>
