<!-- Generated by IcoMoon.io -->
<svg version="1.1" xmlns="http://www.w3.org/2000/svg" width="32" height="32" viewBox="0 0 32 32">
<title>food</title>
<path fill="none" stroke="#7eb693" stroke-linejoin="miter" stroke-linecap="round" stroke-miterlimit="4" stroke-width="1.3333" d="M24.667 12.667c3.638 0.739 6 1.93 6 3.275 0 2.242-6.566 4.059-14.667 4.059s-14.667-1.817-14.667-4.059c0-0.978 1.251-1.876 3.333-2.576"></path>
<path fill="none" stroke="#7eb693" stroke-linejoin="miter" stroke-linecap="round" stroke-miterlimit="4" stroke-width="1.3333" d="M6.025 12.076c-0.266-3.069 1.664-4.536 2.663-4.886 2.33-7.716 9.42-2.031 11.651 1.342s1.997 3.544 4.328 7.716c-9.987 4.361-18.309-0.336-18.642-4.172z"></path>
<path fill="none" stroke="#7eb693" stroke-linejoin="miter" stroke-linecap="round" stroke-miterlimit="4" stroke-width="1.3333" d="M6.061 1.333c-0.442 2.165 1.327 7.73 11.939 12.667"></path>
<path fill="none" stroke="#7eb693" stroke-linejoin="miter" stroke-linecap="round" stroke-miterlimit="4" stroke-width="1.3333" d="M30.667 15.333c0 10-6.566 15.333-14.667 15.333s-14.667-5.333-14.667-15.333"></path>
</svg>
