<!-- Generated by IcoMoon.io -->
<svg version="1.1" xmlns="http://www.w3.org/2000/svg" width="32" height="32" viewBox="0 0 32 32">
<title>insta</title>
<path fill="#274c5b" d="M22.666 2.666c1.767 0.005 3.459 0.709 4.709 1.959s1.953 2.942 1.959 4.709v13.333c-0.005 1.767-0.709 3.459-1.959 4.709s-2.942 1.953-4.709 1.959h-13.333c-1.767-0.005-3.459-0.709-4.709-1.959s-1.953-2.942-1.959-4.709v-13.333c0.005-1.767 0.709-3.459 1.959-4.709s2.942-1.953 4.709-1.959h13.333zM22.666 0h-13.333c-5.134 0-9.334 4.2-9.334 9.334v13.333c0 5.133 4.2 9.333 9.334 9.333h13.333c5.134 0 9.334-4.2 9.334-9.333v-13.333c0-5.134-4.2-9.334-9.334-9.334z"></path>
<path fill="#274c5b" d="M24.666 9.334c-0.396 0-0.782-0.117-1.111-0.337s-0.585-0.532-0.736-0.898-0.191-0.768-0.114-1.156c0.077-0.388 0.268-0.744 0.547-1.024s0.636-0.47 1.024-0.547c0.388-0.077 0.79-0.038 1.156 0.114s0.678 0.408 0.898 0.737c0.22 0.329 0.337 0.716 0.337 1.111 0.001 0.263-0.051 0.523-0.151 0.766s-0.248 0.464-0.433 0.649c-0.186 0.186-0.407 0.333-0.649 0.433s-0.503 0.152-0.766 0.151zM15.999 10.667c1.055 0 2.086 0.313 2.963 0.899s1.561 1.419 1.964 2.394c0.404 0.975 0.509 2.047 0.303 3.082s-0.714 1.985-1.46 2.731c-0.746 0.746-1.696 1.254-2.731 1.46s-2.107 0.1-3.082-0.303c-0.975-0.404-1.808-1.087-2.394-1.965s-0.899-1.908-0.899-2.963c0.002-1.414 0.564-2.77 1.564-3.77s2.356-1.562 3.77-1.564zM15.999 8.001c-1.582 0-3.129 0.469-4.445 1.348s-2.341 2.128-2.946 3.59c-0.605 1.462-0.764 3.070-0.455 4.622s1.071 2.977 2.189 4.096c1.119 1.119 2.544 1.881 4.096 2.19s3.16 0.15 4.622-0.455c1.462-0.605 2.711-1.631 3.59-2.946s1.348-2.862 1.348-4.445c0-2.122-0.843-4.157-2.343-5.657s-3.535-2.343-5.657-2.343z"></path>
</svg>
