<!-- Generated by IcoMoon.io -->
<svg version="1.1" xmlns="http://www.w3.org/2000/svg" width="32" height="32" viewBox="0 0 32 32">
<title>quality</title>
<path fill="none" stroke="#7eb693" stroke-linejoin="round" stroke-linecap="round" stroke-miterlimit="4" stroke-width="1.3333" d="M28 20v5.333h-26.667v-12c0-2.946 2.388-5.333 5.333-5.333h13M23 12.333v6l3.333-2.667 3.667 2.667v-6"></path>
<path fill="none" stroke="#7eb693" stroke-linejoin="miter" stroke-linecap="round" stroke-miterlimit="4" stroke-width="1.3333" d="M25.862 1.805c0.26-0.261 0.683-0.261 0.943 0l0.642 0.643c0.139 0.14 0.334 0.21 0.53 0.193l0.905-0.080c0.367-0.032 0.691 0.239 0.723 0.606l0.079 0.905c0.017 0.197 0.12 0.375 0.282 0.489l0.745 0.521c0.302 0.211 0.375 0.627 0.164 0.929l-0.522 0.744c-0.113 0.162-0.149 0.365-0.098 0.556l0.236 0.878c0.096 0.356-0.116 0.722-0.472 0.817l-0.878 0.235c-0.191 0.051-0.349 0.184-0.432 0.363l-0.384 0.824c-0.156 0.334-0.553 0.478-0.886 0.323l-0.823-0.384c-0.179-0.083-0.385-0.083-0.564 0l-0.823 0.384c-0.334 0.156-0.731 0.011-0.886-0.323l-0.384-0.824c-0.083-0.179-0.242-0.312-0.432-0.363l-0.878-0.235c-0.356-0.095-0.567-0.461-0.472-0.817l0.236-0.878c0.051-0.191 0.015-0.394-0.098-0.556l-0.522-0.744c-0.211-0.302-0.138-0.718 0.164-0.929l0.745-0.521c0.162-0.113 0.265-0.292 0.282-0.489l0.079-0.905c0.032-0.367 0.356-0.639 0.723-0.606l0.905 0.080c0.197 0.017 0.391-0.053 0.53-0.193l0.642-0.643z"></path>
<path fill="none" stroke="#7eb693" stroke-linejoin="miter" stroke-linecap="round" stroke-miterlimit="4" stroke-width="1.3333" d="M1.333 13.667c0-3.13 2.537-5.667 5.667-5.667v0c3.13 0 5.667 2.537 5.667 5.667v11.667h-11.333v-11.667z"></path>
<path fill="none" stroke="#7eb693" stroke-linejoin="miter" stroke-linecap="round" stroke-miterlimit="4" stroke-width="1.3333" d="M9.667 15.333h-5.333"></path>
<path fill="none" stroke="#7eb693" stroke-linejoin="miter" stroke-linecap="round" stroke-miterlimit="4" stroke-width="1.3333" d="M15.333 26v4.667"></path>
<path fill="none" stroke="#7eb693" stroke-linejoin="miter" stroke-linecap="round" stroke-miterlimit="4" stroke-width="1.3333" d="M18.667 26v4.667"></path>
</svg>
