<!-- Generated by IcoMoon.io -->
<svg version="1.1" xmlns="http://www.w3.org/2000/svg" width="32" height="32" viewBox="0 0 32 32">
<title>star</title>
<path fill="#ffa858" d="M14.639 1.056c0.443-1.408 2.28-1.408 2.721 0l2.831 9.007c0.197 0.631 0.745 1.056 1.36 1.056h9.009c1.409 0 1.977 1.968 0.819 2.838l-7.172 5.389c-0.528 0.396-0.748 1.123-0.542 1.782l2.767 8.806c0.446 1.422-1.041 2.638-2.181 1.782l-7.432-5.586c-0.493-0.37-1.146-0.37-1.639 0l-7.433 5.586c-1.139 0.856-2.626-0.359-2.179-1.782l2.766-8.806c0.207-0.658-0.014-1.385-0.542-1.782l-7.171-5.389c-1.158-0.87-0.59-2.838 0.819-2.838h9.009c0.615 0 1.163-0.424 1.361-1.056l2.829-9.007z"></path>
</svg>
