<!-- Generated by IcoMoon.io -->
<svg version="1.1" xmlns="http://www.w3.org/2000/svg" width="32" height="32" viewBox="0 0 32 32">
<title>tw</title>
<path fill="#274c5b" d="M32 5.826c-1.2 0.543-2.47 0.901-3.77 1.063 1.366-0.833 2.393-2.157 2.889-3.722-1.291 0.787-2.702 1.338-4.171 1.632-0.618-0.675-1.363-1.213-2.187-1.579s-1.711-0.555-2.607-0.553c-3.628 0-6.564 3.014-6.564 6.729-0.003 0.517 0.054 1.032 0.169 1.535-2.602-0.127-5.149-0.818-7.479-2.030s-4.392-2.916-6.054-5.005c-0.583 1.024-0.891 2.192-0.893 3.382 0 2.333 1.169 4.396 2.933 5.604-1.046-0.026-2.070-0.314-2.985-0.84v0.083c0 3.264 2.267 5.979 5.267 6.597-0.564 0.157-1.146 0.236-1.729 0.236-0.414 0.001-0.828-0.041-1.234-0.125 0.834 2.674 3.261 4.618 6.137 4.674-2.336 1.876-5.205 2.889-8.155 2.882-0.524-0.001-1.047-0.033-1.567-0.097 3.001 1.996 6.489 3.052 10.049 3.042 12.091 0 18.696-10.257 18.696-19.153 0-0.292-0.007-0.583-0.021-0.868 1.282-0.95 2.391-2.13 3.275-3.486z"></path>
</svg>
