<svg aria-hidden="true" style="position: absolute; width: 0; height: 0; overflow: hidden;" version="1.1" xmlns="http://www.w3.org/2000/svg" xmlns:xlink="http://www.w3.org/1999/xlink">
<defs>
<symbol id="icon-arrow" viewBox="0 0 32 32">
<path fill="none" stroke="#fff" style="stroke: var(--color1, #fff)" stroke-linejoin="round" stroke-linecap="round" stroke-miterlimit="4" stroke-width="1.2108" d="M30.248 16h-29.383M24.748 10.811l6.387 5.189-6.387 5.189v-10.378z"></path>
</symbol>
<symbol id="icon-fb" viewBox="0 0 32 32">
<path fill="#274c5b" style="fill: var(--color2, #274c5b)" d="M32 16.097c0-8.889-7.164-16.097-16-16.097s-16 7.208-16 16.097c0 8.034 5.85 14.693 13.5 15.902v-11.247h-4.064v-4.654h4.064v-3.546c0-4.034 2.389-6.263 6.044-6.263 1.751 0 3.582 0.315 3.582 0.315v3.962h-2.019c-1.987 0-2.608 1.24-2.608 2.515v3.018h4.437l-0.709 4.654h-3.728v11.249c7.65-1.208 13.5-7.867 13.5-15.903z"></path>
</symbol>
<symbol id="icon-food" viewBox="0 0 32 32">
<path fill="none" stroke="#7eb693" style="stroke: var(--color3, #7eb693)" stroke-linejoin="miter" stroke-linecap="round" stroke-miterlimit="4" stroke-width="1.3333" d="M24.667 12.667c3.638 0.739 6 1.93 6 3.275 0 2.242-6.566 4.059-14.667 4.059s-14.667-1.817-14.667-4.059c0-0.978 1.251-1.876 3.333-2.576"></path>
<path fill="none" stroke="#7eb693" style="stroke: var(--color3, #7eb693)" stroke-linejoin="miter" stroke-linecap="round" stroke-miterlimit="4" stroke-width="1.3333" d="M6.025 12.076c-0.266-3.069 1.664-4.536 2.663-4.886 2.33-7.716 9.42-2.031 11.651 1.342s1.997 3.544 4.328 7.716c-9.987 4.361-18.309-0.336-18.642-4.172z"></path>
<path fill="none" stroke="#7eb693" style="stroke: var(--color3, #7eb693)" stroke-linejoin="miter" stroke-linecap="round" stroke-miterlimit="4" stroke-width="1.3333" d="M6.061 1.333c-0.442 2.165 1.327 7.73 11.939 12.667"></path>
<path fill="none" stroke="#7eb693" style="stroke: var(--color3, #7eb693)" stroke-linejoin="miter" stroke-linecap="round" stroke-miterlimit="4" stroke-width="1.3333" d="M30.667 15.333c0 10-6.566 15.333-14.667 15.333s-14.667-5.333-14.667-15.333"></path>
</symbol>
<symbol id="icon-quality" viewBox="0 0 32 32">
<path fill="none" stroke="#7eb693" style="stroke: var(--color3, #7eb693)" stroke-linejoin="round" stroke-linecap="round" stroke-miterlimit="4" stroke-width="1.3333" d="M28 20v5.333h-26.667v-12c0-2.946 2.388-5.333 5.333-5.333h13M23 12.333v6l3.333-2.667 3.667 2.667v-6"></path>
<path fill="none" stroke="#7eb693" style="stroke: var(--color3, #7eb693)" stroke-linejoin="miter" stroke-linecap="round" stroke-miterlimit="4" stroke-width="1.3333" d="M25.862 1.805c0.26-0.261 0.683-0.261 0.943 0l0.642 0.643c0.139 0.14 0.334 0.21 0.53 0.193l0.905-0.080c0.367-0.032 0.691 0.239 0.723 0.606l0.079 0.905c0.017 0.197 0.12 0.375 0.282 0.489l0.745 0.521c0.302 0.211 0.375 0.627 0.164 0.929l-0.522 0.744c-0.113 0.162-0.149 0.365-0.098 0.556l0.236 0.878c0.096 0.356-0.116 0.722-0.472 0.817l-0.878 0.235c-0.191 0.051-0.349 0.184-0.432 0.363l-0.384 0.824c-0.156 0.334-0.553 0.478-0.886 0.323l-0.823-0.384c-0.179-0.083-0.385-0.083-0.564 0l-0.823 0.384c-0.334 0.156-0.731 0.011-0.886-0.323l-0.384-0.824c-0.083-0.179-0.242-0.312-0.432-0.363l-0.878-0.235c-0.356-0.095-0.567-0.461-0.472-0.817l0.236-0.878c0.051-0.191 0.015-0.394-0.098-0.556l-0.522-0.744c-0.211-0.302-0.138-0.718 0.164-0.929l0.745-0.521c0.162-0.113 0.265-0.292 0.282-0.489l0.079-0.905c0.032-0.367 0.356-0.639 0.723-0.606l0.905 0.080c0.197 0.017 0.391-0.053 0.53-0.193l0.642-0.643z"></path>
<path fill="none" stroke="#7eb693" style="stroke: var(--color3, #7eb693)" stroke-linejoin="miter" stroke-linecap="round" stroke-miterlimit="4" stroke-width="1.3333" d="M1.333 13.667c0-3.13 2.537-5.667 5.667-5.667v0c3.13 0 5.667 2.537 5.667 5.667v11.667h-11.333v-11.667z"></path>
<path fill="none" stroke="#7eb693" style="stroke: var(--color3, #7eb693)" stroke-linejoin="miter" stroke-linecap="round" stroke-miterlimit="4" stroke-width="1.3333" d="M9.667 15.333h-5.333"></path>
<path fill="none" stroke="#7eb693" style="stroke: var(--color3, #7eb693)" stroke-linejoin="miter" stroke-linecap="round" stroke-miterlimit="4" stroke-width="1.3333" d="M15.333 26v4.667"></path>
<path fill="none" stroke="#7eb693" style="stroke: var(--color3, #7eb693)" stroke-linejoin="miter" stroke-linecap="round" stroke-miterlimit="4" stroke-width="1.3333" d="M18.667 26v4.667"></path>
</symbol>
<symbol id="icon-star" viewBox="0 0 32 32">
<path d="M14.639 1.056c0.443-1.408 2.28-1.408 2.721 0l2.831 9.007c0.197 0.631 0.745 1.056 1.36 1.056h9.009c1.409 0 1.977 1.968 0.819 2.838l-7.172 5.389c-0.528 0.396-0.748 1.123-0.542 1.782l2.767 8.806c0.446 1.422-1.041 2.638-2.181 1.782l-7.432-5.586c-0.493-0.37-1.146-0.37-1.639 0l-7.433 5.586c-1.139 0.856-2.626-0.359-2.179-1.782l2.766-8.806c0.207-0.658-0.014-1.385-0.542-1.782l-7.171-5.389c-1.158-0.87-0.59-2.838 0.819-2.838h9.009c0.615 0 1.163-0.424 1.361-1.056l2.829-9.007z"></path>
</symbol>
<symbol id="icon-tw" viewBox="0 0 32 32">
<path fill="#274c5b" style="fill: var(--color2, #274c5b)" d="M32 5.826c-1.2 0.543-2.47 0.901-3.77 1.063 1.366-0.833 2.393-2.157 2.889-3.722-1.291 0.787-2.702 1.338-4.171 1.632-0.618-0.675-1.363-1.213-2.187-1.579s-1.711-0.555-2.607-0.553c-3.628 0-6.564 3.014-6.564 6.729-0.003 0.517 0.054 1.032 0.169 1.535-2.602-0.127-5.149-0.818-7.479-2.030s-4.392-2.916-6.054-5.005c-0.583 1.024-0.891 2.192-0.893 3.382 0 2.333 1.169 4.396 2.933 5.604-1.046-0.026-2.070-0.314-2.985-0.84v0.083c0 3.264 2.267 5.979 5.267 6.597-0.564 0.157-1.146 0.236-1.729 0.236-0.414 0.001-0.828-0.041-1.234-0.125 0.834 2.674 3.261 4.618 6.137 4.674-2.336 1.876-5.205 2.889-8.155 2.882-0.524-0.001-1.047-0.033-1.567-0.097 3.001 1.996 6.489 3.052 10.049 3.042 12.091 0 18.696-10.257 18.696-19.153 0-0.292-0.007-0.583-0.021-0.868 1.282-0.95 2.391-2.13 3.275-3.486z"></path>
</symbol>
<symbol id="icon-insta" viewBox="0 0 32 32">
<path fill="#274c5b" style="fill: var(--color2, #274c5b)" d="M22.666 2.666c1.767 0.005 3.459 0.709 4.709 1.959s1.953 2.942 1.959 4.709v13.333c-0.005 1.767-0.709 3.459-1.959 4.709s-2.942 1.953-4.709 1.959h-13.333c-1.767-0.005-3.459-0.709-4.709-1.959s-1.953-2.942-1.959-4.709v-13.333c0.005-1.767 0.709-3.459 1.959-4.709s2.942-1.953 4.709-1.959h13.333zM22.666 0h-13.333c-5.134 0-9.334 4.2-9.334 9.334v13.333c0 5.133 4.2 9.333 9.334 9.333h13.333c5.134 0 9.334-4.2 9.334-9.333v-13.333c0-5.134-4.2-9.334-9.334-9.334z"></path>
<path fill="#274c5b" style="fill: var(--color2, #274c5b)" d="M24.666 9.334c-0.396 0-0.782-0.117-1.111-0.337s-0.585-0.532-0.736-0.898-0.191-0.768-0.114-1.156c0.077-0.388 0.268-0.744 0.547-1.024s0.636-0.47 1.024-0.547c0.388-0.077 0.79-0.038 1.156 0.114s0.678 0.408 0.898 0.737c0.22 0.329 0.337 0.716 0.337 1.111 0.001 0.263-0.051 0.523-0.151 0.766s-0.248 0.464-0.433 0.649c-0.186 0.186-0.407 0.333-0.649 0.433s-0.503 0.152-0.766 0.151zM15.999 10.667c1.055 0 2.086 0.313 2.963 0.899s1.561 1.419 1.964 2.394c0.404 0.975 0.509 2.047 0.303 3.082s-0.714 1.985-1.46 2.731c-0.746 0.746-1.696 1.254-2.731 1.46s-2.107 0.1-3.082-0.303c-0.975-0.404-1.808-1.087-2.394-1.965s-0.899-1.908-0.899-2.963c0.002-1.414 0.564-2.77 1.564-3.77s2.356-1.562 3.77-1.564zM15.999 8.001c-1.582 0-3.129 0.469-4.445 1.348s-2.341 2.128-2.946 3.59c-0.605 1.462-0.764 3.070-0.455 4.622s1.071 2.977 2.189 4.096c1.119 1.119 2.544 1.881 4.096 2.19s3.16 0.15 4.622-0.455c1.462-0.605 2.711-1.631 3.59-2.946s1.348-2.862 1.348-4.445c0-2.122-0.843-4.157-2.343-5.657s-3.535-2.343-5.657-2.343z"></path>
</symbol>
</defs>
</svg>
